HIERARCHY
ROOT joint_Root
{
	OFFSET 0.0 0.0 0.0
	CHANNELS 6 Xposition Yposition Zposition Zrotation Xrotation Yrotation 
	JOINT Hips
	{
		OFFSET -17.1583 93.1646 452.98
		CHANNELS 6 Xposition Yposition Zposition Zrotation Xrotation Yrotation 
		JOINT Spine
		{
			OFFSET 15.7357 0.0 0.0
			CHANNELS 6 Xposition Yposition Zposition Zrotation Xrotation Yrotation 
			JOINT Chest
			{
				OFFSET 8.98455 -0.406207 0.0
				CHANNELS 6 Xposition Yposition Zposition Zrotation Xrotation Yrotation 
				JOINT Neck
				{
					OFFSET 16.3773 0.0 0.0
					CHANNELS 6 Xposition Yposition Zposition Zrotation Xrotation Yrotation 
					JOINT Head
					{
						OFFSET 6.45672 0.0 0.0
						CHANNELS 6 Xposition Yposition Zposition Zrotation Xrotation Yrotation 
						End Site
						{
							OFFSET 0.0 0.0 0.0
						}
					}
				}
				JOINT Shoulder_L
				{
					OFFSET 12.9942 -0.242716 4.98039
					CHANNELS 6 Xposition Yposition Zposition Zrotation Xrotation Yrotation 
					JOINT UpperArm_L
					{
						OFFSET 5.34809 0.0 0.0
						CHANNELS 6 Xposition Yposition Zposition Zrotation Xrotation Yrotation 
						JOINT LowerArm_L
						{
							OFFSET 24.3286 1.87007e-05 0.0
							CHANNELS 6 Xposition Yposition Zposition Zrotation Xrotation Yrotation 
							JOINT Hand_L
							{
								OFFSET 22.2916 0.0 0.0
								CHANNELS 6 Xposition Yposition Zposition Zrotation Xrotation Yrotation 
								End Site
								{
									OFFSET 0.0 0.0 0.0
								}
							}
						}
					}
				}
				JOINT Shoulder_R
				{
					OFFSET 12.9945 -0.242716 -4.98039
					CHANNELS 6 Xposition Yposition Zposition Zrotation Xrotation Yrotation 
					JOINT UpperArm_R
					{
						OFFSET -5.34813 0.0 0.0
						CHANNELS 6 Xposition Yposition Zposition Zrotation Xrotation Yrotation 
						JOINT LowerArm_R
						{
							OFFSET -24.3289 0.000322201 0.0
							CHANNELS 6 Xposition Yposition Zposition Zrotation Xrotation Yrotation 
							JOINT Hand_R
							{
								OFFSET -22.2915 -0.000108084 0.0
								CHANNELS 6 Xposition Yposition Zposition Zrotation Xrotation Yrotation 
								End Site
								{
									OFFSET 0.0 0.0 0.0
								}
							}
						}
					}
				}
			}
		}
		JOINT UpperLeg_L
		{
			OFFSET -2.19248 -6.46944 0.0
			CHANNELS 6 Xposition Yposition Zposition Zrotation Xrotation Yrotation 
			JOINT LowerLeg_L
			{
				OFFSET 39.0811 0.0 -1.23785e-05
				CHANNELS 6 Xposition Yposition Zposition Zrotation Xrotation Yrotation 
				JOINT Foot_L
				{
					OFFSET 40.9854 0.0 -1.26872e-05
					CHANNELS 6 Xposition Yposition Zposition Zrotation Xrotation Yrotation 
					JOINT Toes_L
					{
						OFFSET 11.7543 0.0 0.0
						CHANNELS 6 Xposition Yposition Zposition Zrotation Xrotation Yrotation 
						End Site
						{
							OFFSET 0.0 0.0 0.0
						}
					}
				}
			}
		}
		JOINT UpperLeg_R
		{
			OFFSET -2.19251 6.46944 0.0
			CHANNELS 6 Xposition Yposition Zposition Zrotation Xrotation Yrotation 
			JOINT LowerLeg_R
			{
				OFFSET -39.0811 -0.00228153 -0.0401928
				CHANNELS 6 Xposition Yposition Zposition Zrotation Xrotation Yrotation 
				JOINT Foot_R
				{
					OFFSET -40.9854 0.0 0.0
					CHANNELS 6 Xposition Yposition Zposition Zrotation Xrotation Yrotation 
					JOINT Toes_R
					{
						OFFSET -11.7543 0.0 0.0
						CHANNELS 6 Xposition Yposition Zposition Zrotation Xrotation Yrotation 
						End Site
						{
							OFFSET 0.0 0.0 0.0
						}
					}
				}
			}
		}
	}
}
MOTION
Frames:	6
Frame Time:	0.0333333
0.000000 0.000000 0.000000 0.000000 0.000000 -0.000000 -1.558260 93.963800 0.709087 87.636000 0.985937 -8.515230 15.735700 0.000005 -0.000001 -39.212100 89.291500 40.590500 8.984550 -0.406207 -0.000000 -8.646060 -1.291590 2.666060 16.377300 -0.000001 -0.000001 -8.484070 -0.273002 1.373380 6.456720 -0.000001 -0.000000 -15.103300 -0.214691 1.189420 12.994200 -0.242716 4.980390 -87.941700 -3.820790 -61.659400 5.348090 -0.000007 -0.000001 -84.974300 -64.528400 -129.743000 24.328600 0.000019 0.000005 0.000046 -1.808880 -0.000000 22.291600 -0.000001 0.000005 53.122800 4.290720 19.934700 12.994500 -0.242716 -4.980390 93.888900 -6.507140 -59.042600 -5.348130 -0.000001 -0.000004 -84.593300 -62.676800 -131.432000 -24.328900 0.000322 -0.000009 -0.001110 -36.844800 -0.000222 -22.291500 -0.000108 -0.000004 48.643000 5.509390 -6.916740 -2.192480 -6.469440 -0.000000 -173.629000 -13.751600 -4.375500 39.081100 -0.000007 -0.000012 -0.010235 0.168225 3.481410 40.985400 -0.000006 -0.000013 -9.052250 17.018400 -60.731000 11.754300 -0.000000 0.000003 -0.003002 0.208258 -8.126220 -2.192510 6.469440 -0.000001 178.584000 14.080200 177.755000 -39.081100 -0.002282 -0.040193 0.003338 -0.094032 -0.010700 -40.985400 0.000008 0.000006 -10.934500 14.187200 -58.117600 -11.754300 -0.000006 -0.000006 -0.011244 0.280381 -5.179630
0.000000 0.000000 0.000000 0.000000 0.000000 -0.000000 -1.549640 93.971800 0.675670 87.661500 1.059410 -8.445570 15.735700 0.000005 -0.000001 -38.913500 89.284100 40.277900 8.984550 -0.406207 -0.000000 -8.649670 -1.305740 2.636840 16.377300 -0.000001 -0.000001 -8.299750 -0.251960 1.343950 6.456720 -0.000001 -0.000000 -14.968200 -0.197077 1.138430 12.994200 -0.242716 4.980390 -87.970200 -3.762290 -61.625100 5.348090 -0.000007 -0.000001 -85.304500 -64.390000 -130.103000 24.328600 0.000019 0.000005 0.000046 -1.834930 -0.000000 22.291600 -0.000001 0.000005 52.852000 4.294960 19.869400 12.994500 -0.242716 -4.980390 93.896000 -6.513830 -59.022400 -5.348130 -0.000001 -0.000004 -84.178900 -62.654600 -131.216000 -24.328900 0.000322 -0.000009 -0.001108 -36.627400 -0.000220 -22.291500 -0.000108 -0.000004 48.633000 5.507890 -6.854720 -2.192480 -6.469440 -0.000000 -173.643000 -13.711500 -4.056060 39.081100 -0.000007 -0.000012 -0.007741 0.150805 2.938050 40.985400 -0.000006 -0.000013 -8.910050 17.117400 -60.502300 11.754300 -0.000000 0.000003 -0.003053 0.208829 -8.103000 -2.192510 6.469440 -0.000001 178.545000 14.071600 177.794000 -39.081100 -0.002282 -0.040193 0.003414 -0.093640 0.035912 -40.985400 0.000008 0.000006 -10.879100 14.091200 -58.193700 -11.754300 -0.000006 -0.000006 -0.011734 0.283835 -5.038180
0.000000 0.000000 0.000000 0.000000 0.000000 -0.000000 -1.540560 93.969300 0.654945 87.708000 1.098210 -8.366410 15.735700 0.000005 -0.000001 -39.483500 89.298600 40.816100 8.984550 -0.406207 -0.000000 -8.643050 -1.269860 2.576030 16.377300 -0.000001 -0.000001 -8.121050 -0.227621 1.312120 6.456720 -0.000001 -0.000000 -14.841200 -0.185447 1.163910 12.994200 -0.242716 4.980390 -87.972300 -3.749340 -61.568000 5.348090 -0.000007 -0.000001 -85.469700 -64.248300 -130.228000 24.328600 0.000019 0.000005 0.000046 -1.948960 -0.000000 22.291600 -0.000001 0.000005 52.741400 4.297850 19.824900 12.994500 -0.242716 -4.980390 93.904600 -6.518620 -58.984900 -5.348130 -0.000001 -0.000004 -84.243000 -62.507200 -131.281000 -24.328900 0.000322 -0.000009 -0.001106 -36.300500 -0.000218 -22.291500 -0.000108 -0.000004 48.492600 5.505560 -6.759170 -2.192480 -6.469440 -0.000000 -173.676000 -13.762800 -3.998660 39.081100 -0.000007 -0.000012 -0.007724 0.150500 2.937820 40.985400 -0.000006 -0.000013 -8.941810 17.245800 -60.428000 11.754300 -0.000000 0.000003 -0.002971 0.207904 -8.140630 -2.192510 6.469440 -0.000001 178.474000 14.170400 177.855000 -39.081100 -0.002282 -0.040193 0.003471 -0.094406 0.070279 -40.985400 0.000008 0.000006 -10.934600 14.171600 -58.173300 -11.754300 -0.000006 -0.000006 -0.011257 0.280470 -5.175960
0.000000 0.000000 0.000000 0.000000 0.000000 -0.000000 -1.530940 93.974700 0.621306 87.710500 1.171150 -8.310580 15.735700 0.000005 -0.000001 -40.162400 89.297400 41.489600 8.984550 -0.406207 -0.000000 -8.657490 -1.260410 2.565720 16.377300 -0.000001 -0.000001 -7.937500 -0.217886 1.318890 6.456720 -0.000001 -0.000000 -14.617600 -0.158796 1.090960 12.994200 -0.242716 4.980390 -87.976700 -3.736770 -61.539100 5.348090 -0.000007 -0.000001 -85.007600 -64.311300 -129.721000 24.328600 0.000019 0.000005 0.000046 -1.834300 -0.000000 22.291600 -0.000001 0.000005 52.848900 4.295460 19.861700 12.994500 -0.242716 -4.980390 93.926400 -6.543550 -58.939700 -5.348130 -0.000001 -0.000004 -83.939100 -62.452600 -131.022000 -24.328900 0.000322 -0.000009 -0.001104 -36.104100 -0.000216 -22.291500 -0.000108 -0.000004 48.301100 5.503860 -6.689890 -2.192480 -6.469440 -0.000000 -173.680000 -13.689700 -4.053140 39.081100 -0.000007 -0.000012 -0.008197 0.152289 3.080860 40.985400 -0.000006 -0.000013 -8.930790 17.207500 -60.504800 11.754300 -0.000000 0.000003 -0.003077 0.209102 -8.091870 -2.192510 6.469440 -0.000001 178.465000 14.255200 177.874000 -39.081100 -0.002282 -0.040193 0.003527 -0.096220 0.102290 -40.985400 0.000008 0.000006 -11.069900 14.161400 -58.109900 -11.754300 -0.000006 -0.000006 -0.011457 0.281890 -5.117830
0.000000 0.000000 0.000000 0.000000 0.000000 -0.000000 -1.526850 93.971800 0.593990 87.716100 1.196170 -8.255980 15.735700 0.000005 -0.000001 -40.714700 89.297100 42.038100 8.984550 -0.406207 -0.000000 -8.668270 -1.251600 2.558700 16.377300 -0.000001 -0.000001 -7.734800 -0.217604 1.359510 6.456720 -0.000001 -0.000000 -14.431600 -0.079510 1.013750 12.994200 -0.242716 4.980390 -87.994900 -3.697000 -61.499700 5.348090 -0.000007 -0.000001 -84.761900 -64.354700 -129.442000 24.328600 0.000019 0.000005 0.000046 -1.737870 -0.000000 22.291600 -0.000001 0.000005 52.830100 4.293580 19.890700 12.994500 -0.242716 -4.980390 93.939200 -6.555510 -58.902800 -5.348130 -0.000001 -0.000004 -83.676600 -62.300900 -130.780000 -24.328900 0.000322 -0.000009 -0.001104 -36.133500 -0.000217 -22.291500 -0.000108 -0.000004 48.063800 5.505680 -6.764030 -2.192480 -6.469440 -0.000000 -173.700000 -13.745300 -4.079950 39.081100 -0.000007 -0.000012 -0.008519 0.152426 3.198530 40.985400 -0.000006 -0.000013 -8.689240 17.272700 -60.584200 11.754300 -0.000000 0.000003 -0.002954 0.207706 -8.148700 -2.192510 6.469440 -0.000001 178.453000 14.292200 177.881000 -39.081100 -0.002282 -0.040193 0.003632 -0.095872 0.165261 -40.985400 0.000008 0.000006 -11.009700 14.158900 -58.150400 -11.754300 -0.000006 -0.000006 -0.011192 0.280003 -5.195080
0.000000 0.000000 0.000000 0.000000 0.000000 -0.000000 -1.522980 93.981200 0.565051 87.708400 1.224840 -8.204560 15.735700 0.000005 -0.000001 -40.336600 89.309900 41.675900 8.984550 -0.406207 -0.000000 -8.644640 -1.240290 2.591530 16.377300 -0.000001 -0.000001 -7.575390 -0.203852 1.369680 6.456720 -0.000001 -0.000000 -14.362700 -0.030731 0.896922 12.994200 -0.242716 4.980390 -88.000000 -3.683650 -61.473800 5.348090 -0.000007 -0.000001 -84.918500 -64.309000 -129.360000 24.328600 0.000019 0.000005 0.000046 -1.824080 -0.000000 22.291600 -0.000001 0.000005 52.735900 4.290140 19.943600 12.994500 -0.242716 -4.980390 93.952400 -6.559420 -58.833000 -5.348130 -0.000001 -0.000004 -83.621100 -62.084100 -130.690000 -24.328900 0.000322 -0.000009 -0.001104 -36.055300 -0.000216 -22.291500 -0.000108 -0.000004 47.921400 5.500890 -6.569530 -2.192480 -6.469440 -0.000000 -173.666000 -13.750800 -4.007270 39.081100 -0.000007 -0.000012 -0.008189 0.151327 3.097380 40.985400 -0.000006 -0.000013 -8.962590 17.310600 -60.399800 11.754300 -0.000000 0.000003 -0.002938 0.207526 -8.156030 -2.192510 6.469440 -0.000001 178.446000 14.194000 177.900000 -39.081100 -0.002282 -0.040193 0.003690 -0.096396 0.199121 -40.985400 0.000008 0.000006 -11.018800 14.065700 -58.115300 -11.754300 -0.000006 -0.000006 -0.011179 0.279917 -5.198620
